<svg id="Group_494" data-name="Group 494" xmlns="http://www.w3.org/2000/svg" width="24.458" height="14.857" viewBox="0 0 24.458 14.857">
  <path id="Path_37" data-name="Path 37" d="M26.418,20.083l-7.543-5.994a2.167,2.167,0,0,0-2.549,0,1.244,1.244,0,0,0,0,2.025l4.454,3.56H4.3a1.639,1.639,0,0,0-1.8,1.432,1.639,1.639,0,0,0,1.8,1.432H20.779l-4.454,3.539a1.244,1.244,0,0,0,0,2.025,2.143,2.143,0,0,0,2.575,0l7.518-5.973a1.328,1.328,0,0,0,.541-1.023A1.256,1.256,0,0,0,26.418,20.083Z" transform="translate(-2.5 -13.675)" fill="#fff"/>
</svg>
