<svg xmlns="http://www.w3.org/2000/svg" width="23.282" height="20.937" viewBox="0 0 23.282 20.937">
  <path id="Path_1224" data-name="Path 1224" d="M28.063,20.244V15.31a.533.533,0,0,0-.533-.533H25.966a.533.533,0,0,0-.533.533v1.237a.533.533,0,0,1-.911.377l-4.846-4.846a.533.533,0,0,0-.754,0L7.815,23.185a.533.533,0,0,0,.377.911H10a.533.533,0,0,1,.533.533v7.7a.533.533,0,0,0,.533.533h5.387a.533.533,0,0,0,.533-.533V27.1a.533.533,0,0,1,.533-.533h3.553a.533.533,0,0,1,.533.533v5.229a.533.533,0,0,0,.533.533H27.53a.533.533,0,0,0,.533-.533v-7.7A.533.533,0,0,1,28.6,24.1h1.809a.533.533,0,0,0,.377-.911l-2.563-2.563A.533.533,0,0,1,28.063,20.244Z" transform="translate(-7.658 -11.922)" fill="#01a300"/>
</svg>
