<svg xmlns="http://www.w3.org/2000/svg" width="81.623" height="90" viewBox="0 0 81.623 90">
  <g id="Group_438" data-name="Group 438" transform="translate(0 0)">
    <path id="Path_1206" data-name="Path 1206" d="M85.781,52.084l-6.187-9.844a6.813,6.813,0,0,1-.984-3.656A36.4,36.4,0,0,0,67.781,12.428a37.005,37.005,0,0,0-52.312,0A35.964,35.964,0,0,0,4.5,38.584,37.443,37.443,0,0,0,19.125,68.116,29.165,29.165,0,0,1,27.7,78.522a26.879,26.879,0,0,1,2.953,10.266A3.044,3.044,0,0,0,33.609,91.6H60.891a2.97,2.97,0,0,0,2.953-2.953V79.225a3.422,3.422,0,0,1,3.375-3.375h5.2A6,6,0,0,0,78.469,69.8V59.538a3.422,3.422,0,0,1,3.375-3.375h1.688C85.5,55.741,86.766,53.631,85.781,52.084ZM43.172,61.225a.9.9,0,0,1-.844,0C39.8,59.819,26.859,52.084,20.953,41.959H31.078a1.943,1.943,0,0,0,1.547-.844L35.437,36.9l3.094,9.7a2.027,2.027,0,0,0,1.547,1.266h.281a1.764,1.764,0,0,0,1.547-.844l8.3-13.359L53.3,41.537a1.827,1.827,0,0,0,1.688,1.125h9.281C58.078,52.506,45.7,59.819,43.172,61.225ZM65.812,40.131a1.054,1.054,0,0,0-.7-.141H55.547l-3.656-9.281a1.645,1.645,0,0,0-1.547-1.125,1.841,1.841,0,0,0-1.687.844l-8.3,13.219-3.094-9.563a2.027,2.027,0,0,0-1.547-1.266,1.693,1.693,0,0,0-1.828.844l-3.8,5.484H19.688c-.281,0-.422,0-.562.141a25.745,25.745,0,0,1-1.266-7.313A14.944,14.944,0,0,1,32.906,17.069c3.516,0,6.891,2.109,9.422,4.359a.855.855,0,0,0,1.125,0c2.531-2.25,5.906-4.359,9.422-4.359A14.944,14.944,0,0,1,67.781,32.116,17.763,17.763,0,0,1,65.812,40.131Z" transform="translate(-4.5 -1.6)" fill="#666"/>
  </g>
</svg>
