<svg xmlns="http://www.w3.org/2000/svg" width="33.381" height="28.695" viewBox="0 0 33.381 28.695">
  <g id="Group_530" data-name="Group 530" transform="translate(-4411.5 1024)">
    <g id="Group_413" data-name="Group 413" transform="translate(4411.5 -1024)">
      <path id="Path_1177" data-name="Path 1177" d="M40.063,33.846a6.2,6.2,0,0,1-1.4-3.931V27.177a6.854,6.854,0,0,0-5.405-6.7v-1.3a1.474,1.474,0,0,0-2.948,0v1.3a6.854,6.854,0,0,0-5.405,6.7v2.738a6.2,6.2,0,0,1-1.4,3.931L22.337,35.32a1.592,1.592,0,0,0,1.229,2.6h16.5a1.592,1.592,0,0,0,1.229-2.6Z" transform="translate(-15.142 -14.698)" fill="#aaa"/>
      <path id="Path_1178" data-name="Path 1178" d="M67.875,20.034a1.218,1.218,0,0,0,.035,1.72,9.057,9.057,0,0,1,2.773,5.967,1.226,1.226,0,0,0,1.229,1.123h.07a1.194,1.194,0,0,0,1.123-1.3A11.69,11.69,0,0,0,69.6,20,1.251,1.251,0,0,0,67.875,20.034Z" transform="translate(-44.709 -15.979)" fill="#aaa"/>
      <path id="Path_1179" data-name="Path 1179" d="M19.119,27.8a9.4,9.4,0,0,1,2.773-5.967,1.216,1.216,0,0,0-1.685-1.755,11.69,11.69,0,0,0-3.51,7.547,1.218,1.218,0,0,0,1.123,1.3h.07A1.223,1.223,0,0,0,19.119,27.8Z" transform="translate(-11.712 -16.021)" fill="#aaa"/>
      <path id="Path_1180" data-name="Path 1180" d="M9.45,11.3A1.217,1.217,0,0,0,7.8,9.506,16.6,16.6,0,0,0,2.5,21.651v.316a1.229,1.229,0,0,0,2.457,0v-.316A13.969,13.969,0,0,1,9.45,11.3Z" transform="translate(-2.5 -9.172)" fill="#aaa"/>
      <path id="Path_1181" data-name="Path 1181" d="M78.7,9.483a1.217,1.217,0,0,0-1.65,1.79,13.969,13.969,0,0,1,4.493,10.355v.316a1.229,1.229,0,1,0,2.457,0v-.316A16.874,16.874,0,0,0,78.7,9.483Z" transform="translate(-50.622 -9.149)" fill="#aaa"/>
      <path id="Path_1182" data-name="Path 1182" d="M43.51,84.41a3.52,3.52,0,0,0,3.51-3.51H40A3.52,3.52,0,0,0,43.51,84.41Z" transform="translate(-26.837 -55.715)" fill="#aaa"/>
    </g>
  </g>
</svg>
