<svg xmlns="http://www.w3.org/2000/svg" width="79.904" height="90" viewBox="0 0 79.904 90">
  <g id="Group_441" data-name="Group 441" transform="translate(0 0)">
    <path id="Path_1221" data-name="Path 1221" d="M70.931,26.85A21.648,21.648,0,0,0,49.542,5,21.649,21.649,0,0,0,28.151,26.85c0,12.046,9.6,24.834,21.391,24.834S70.931,38.9,70.931,26.85Z" transform="translate(-9.59 -5)" fill="#666"/>
    <path id="Path_1222" data-name="Path 1222" d="M9.192,80.607C9.192,88.555,27.079,95,49.144,95S89.1,88.555,89.1,80.607A28.964,28.964,0,0,0,67.347,52.355a13.5,13.5,0,0,1,5.967,10.137,6.372,6.372,0,1,1-2.939.04,10.446,10.446,0,0,0-6.429-8.611L49.567,67.684,35,53.738a10.442,10.442,0,0,0-6.959,9.571,3.267,3.267,0,0,1,1.306,1.486c2.092,1.008,3.939,3.13,5.353,6.151a2.182,2.182,0,0,1,.094,1.607,19.726,19.726,0,0,1,1.332,6.711c0,2.867,0,5.578-3.059,6.274a1.816,1.816,0,0,1-1.182.436H29.838a1.882,1.882,0,0,1-1.859-1.9l0-.074a1.89,1.89,0,0,1,1.857-1.825h2.044a1.792,1.792,0,0,1,.611.107.537.537,0,0,0,.163-.066,11.259,11.259,0,0,0,.227-2.952,16.213,16.213,0,0,0-1.121-5.534,2.114,2.114,0,0,1-.854-.933c-1.24-2.651-2.925-4.363-4.295-4.363-1.4,0-3.17,1.851-4.4,4.6a2.141,2.141,0,0,1-.991,1.032,15.8,15.8,0,0,0-1,5.193,10.48,10.48,0,0,0,.259,2.96,1.024,1.024,0,0,0,.223.077,1.828,1.828,0,0,1,.666-.126h2.048a1.877,1.877,0,0,1,1.848,1.707l.011.118a1.9,1.9,0,0,1-1.858,1.974H21.369a1.817,1.817,0,0,1-1.122-.391,3.528,3.528,0,0,1-2.516-1.61c-.632-1.037-.748-2.4-.748-4.709a19.434,19.434,0,0,1,1.29-6.589,2.148,2.148,0,0,1,.121-1.424,15.863,15.863,0,0,1,3.188-4.793,8.828,8.828,0,0,1,2.142-1.576A3.317,3.317,0,0,1,25.1,63.3a13.506,13.506,0,0,1,6.111-11.012A28.957,28.957,0,0,0,9.192,80.607Zm44.847-.482a.657.657,0,0,1,.684-.625h3.721V75.7a.66.66,0,0,1,.612-.7h3.671a.661.661,0,0,1,.612.7v3.8h3.721a.656.656,0,0,1,.684.625v3.75a.656.656,0,0,1-.684.625H63.34v3.8a.661.661,0,0,1-.612.7H59.056a.66.66,0,0,1-.612-.7V84.5H54.723a.657.657,0,0,1-.684-.625Z" transform="translate(-9.192 -5)" fill="#666"/>
    <ellipse id="Ellipse_60" data-name="Ellipse 60" cx="2.937" cy="3" rx="2.937" ry="3" transform="translate(59.793 60.83)" fill="#666"/>
  </g>
</svg>
