<svg xmlns="http://www.w3.org/2000/svg" width="127" height="127" viewBox="0 0 127 127">
  <g id="Group_529" data-name="Group 529" transform="translate(-2588.5 -6768)">
    <g id="Group_422" data-name="Group 422" transform="translate(2588.5 6768)">
      <path id="Path_1185" data-name="Path 1185" d="M123.618,39.263q-3.409,3.81-6.417,7.62c-.936,1.069-1.738,2.139-2.674,3.342A50.991,50.991,0,1,1,66,15.066a52.1,52.1,0,0,1,24.865,6.417c2.54-2.54,5.08-4.946,7.754-7.353l1.738-1.471A62.852,62.852,0,0,0,66,2.5a63.442,63.442,0,1,0,57.618,36.763Z" transform="translate(-2.5 -2.5)" fill="#01a300"/>
      <path id="Path_1186" data-name="Path 1186" d="M75.455,44.577Q68.236,53.4,61.82,62.624c-2.139,3.075-4.278,6.283-6.283,9.492L38.425,50.994a6.183,6.183,0,0,0-8.155-1.2,6.03,6.03,0,0,0-1.6,8.422L50.189,90.163a7.976,7.976,0,0,0,6.149,3.342A7.568,7.568,0,0,0,62.889,89.9c1.2-2.139,7.219-13.235,11.229-19.251C78,64.629,82.006,58.747,86.417,53c4.278-5.748,8.823-11.363,13.636-16.711a204.365,204.365,0,0,1,14.839-15.507l.134-.134a6.065,6.065,0,0,0,.4-8.422,5.986,5.986,0,0,0-8.556-.535C100.989,16.9,95.775,22.118,90.562,27.6A224.89,224.89,0,0,0,75.455,44.577Z" transform="translate(5.958 0.074)" fill="#01a300"/>
    </g>
  </g>
</svg>
